<?xml version="1.0" encoding="UTF-8" standalone="no"?>
<!DOCTYPE svg PUBLIC "-//W3C//DTD SVG 1.1//EN" "http://www.w3.org/Graphics/SVG/1.1/DTD/svg11.dtd">
<svg width="100%" height="100%" viewBox="0 0 245 27" version="1.1" xmlns="http://www.w3.org/2000/svg" xmlns:xlink="http://www.w3.org/1999/xlink" xml:space="preserve" xmlns:serif="http://www.serif.com/" style="fill-rule:evenodd;clip-rule:evenodd;stroke-linecap:round;stroke-linejoin:round;">
    <g transform="matrix(1,0,0,1,0.724086,0)">
        <path d="M2.026,22.776L2.026,15.34C2.026,11.473 5.158,8.34 9.025,8.34C12.892,8.34 16.024,11.473 16.024,15.34" style="fill:none;fill-rule:nonzero;stroke:url(#_Linear1);stroke-width:4px;"/>
    </g>
    <g transform="matrix(1,0,0,1,0.724086,0)">
        <path d="M22.805,8.34L22.805,15.737C22.805,19.626 19.673,22.776 15.806,22.776C11.939,22.776 8.806,19.626 8.806,15.737" style="fill:none;fill-rule:nonzero;stroke:url(#_Linear2);stroke-width:4px;"/>
    </g>
    <g transform="matrix(1,0,0,1,0.724086,0)">
        <path d="M22.836,4.685C23.941,4.685 24.836,3.789 24.836,2.685C24.836,1.58 23.941,0.685 22.836,0.685C21.732,0.685 20.836,1.58 20.836,2.685C20.836,3.789 21.732,4.685 22.836,4.685Z" style="fill:rgb(1,108,249);fill-rule:nonzero;"/>
    </g>
    <g transform="matrix(2.13109,0,0,2.13109,-37.3031,4.94021)">
        <g transform="matrix(12,0,0,12,33.4421,7.79038)">
            <path d="M0.175,-0L0.175,-0.262C0.175,-0.326 0.223,-0.387 0.287,-0.387C0.314,-0.387 0.34,-0.379 0.363,-0.369L0.372,-0.369L0.375,-0.488C0.352,-0.497 0.332,-0.502 0.305,-0.502C0.238,-0.502 0.198,-0.453 0.18,-0.414L0.171,-0.414L0.171,-0.493L0.056,-0.493L0.056,-0L0.175,-0Z" style="fill:rgb(29,13,91);fill-rule:nonzero;"/>
        </g>
        <g transform="matrix(12,0,0,12,38.1461,7.79038)">
            <path d="M0.529,-0.265C0.529,-0.423 0.409,-0.505 0.283,-0.505C0.14,-0.505 0.028,-0.4 0.028,-0.248L0.028,-0.246C0.028,-0.094 0.139,0.012 0.282,0.012C0.402,0.012 0.502,-0.056 0.525,-0.168L0.401,-0.172C0.386,-0.124 0.342,-0.091 0.281,-0.091C0.209,-0.091 0.156,-0.141 0.15,-0.218L0.529,-0.218L0.529,-0.265ZM0.282,-0.403C0.345,-0.403 0.398,-0.362 0.404,-0.294L0.151,-0.294C0.162,-0.357 0.211,-0.403 0.282,-0.403Z" style="fill:rgb(29,13,91);fill-rule:nonzero;"/>
        </g>
        <g transform="matrix(12,0,0,12,44.8181,7.79038)">
            <path d="M0.657,-0.505C0.57,-0.505 0.524,-0.462 0.494,-0.407L0.48,-0.407C0.451,-0.466 0.399,-0.505 0.329,-0.505C0.253,-0.505 0.212,-0.468 0.183,-0.423L0.172,-0.423L0.172,-0.493L0.056,-0.493L0.056,-0L0.173,-0L0.173,-0.279C0.173,-0.348 0.226,-0.396 0.29,-0.396C0.355,-0.396 0.388,-0.348 0.388,-0.28L0.388,-0L0.506,-0L0.506,-0.279C0.506,-0.348 0.558,-0.396 0.622,-0.396C0.688,-0.396 0.722,-0.349 0.722,-0.281L0.722,-0L0.838,-0L0.838,-0.294C0.838,-0.411 0.767,-0.505 0.657,-0.505Z" style="fill:rgb(29,13,91);fill-rule:nonzero;"/>
        </g>
        <g transform="matrix(12,0,0,12,55.4981,7.79038)">
            <path d="M0.282,0.012C0.424,0.012 0.537,-0.094 0.537,-0.246L0.537,-0.248C0.537,-0.4 0.424,-0.505 0.282,-0.505C0.141,-0.505 0.028,-0.4 0.028,-0.248L0.028,-0.246C0.028,-0.094 0.141,0.012 0.282,0.012ZM0.282,-0.093C0.204,-0.093 0.149,-0.157 0.149,-0.246L0.149,-0.248C0.149,-0.338 0.204,-0.4 0.282,-0.4C0.36,-0.4 0.416,-0.338 0.416,-0.248L0.416,-0.246C0.416,-0.157 0.36,-0.093 0.282,-0.093Z" style="fill:rgb(29,13,91);fill-rule:nonzero;"/>
        </g>
        <g transform="matrix(12,0,0,12,62.2781,7.79038)">
            <path d="M0.34,-0.104C0.33,-0.099 0.315,-0.094 0.295,-0.094C0.244,-0.094 0.215,-0.115 0.215,-0.179L0.216,-0.391L0.345,-0.391L0.345,-0.493L0.216,-0.493L0.217,-0.637L0.098,-0.637L0.097,-0.493L0.016,-0.493L0.016,-0.391L0.097,-0.391L0.096,-0.173C0.095,-0.049 0.162,0.011 0.267,0.011C0.305,0.011 0.325,0.005 0.348,-0.004L0.344,-0.104L0.34,-0.104Z" style="fill:rgb(29,13,91);fill-rule:nonzero;"/>
        </g>
        <g transform="matrix(12,0,0,12,66.8501,7.79038)">
            <path d="M0.529,-0.265C0.529,-0.423 0.409,-0.505 0.283,-0.505C0.14,-0.505 0.028,-0.4 0.028,-0.248L0.028,-0.246C0.028,-0.094 0.139,0.012 0.282,0.012C0.402,0.012 0.502,-0.056 0.525,-0.168L0.401,-0.172C0.386,-0.124 0.342,-0.091 0.281,-0.091C0.209,-0.091 0.156,-0.141 0.15,-0.218L0.529,-0.218L0.529,-0.265ZM0.282,-0.403C0.345,-0.403 0.398,-0.362 0.404,-0.294L0.151,-0.294C0.162,-0.357 0.211,-0.403 0.282,-0.403Z" style="fill:rgb(29,13,91);fill-rule:nonzero;"/>
        </g>
        <g transform="matrix(12,0,0,12,73.5221,7.79038)">
            <path d="M0.284,0.012C0.404,0.012 0.507,-0.058 0.528,-0.194L0.405,-0.197C0.391,-0.131 0.342,-0.093 0.283,-0.093C0.206,-0.093 0.149,-0.157 0.149,-0.246L0.149,-0.248C0.149,-0.337 0.206,-0.4 0.283,-0.4C0.342,-0.4 0.391,-0.363 0.405,-0.297L0.528,-0.3C0.507,-0.436 0.404,-0.505 0.284,-0.505C0.141,-0.505 0.028,-0.4 0.028,-0.248L0.028,-0.246C0.028,-0.094 0.141,0.012 0.284,0.012Z" style="fill:rgb(29,13,91);fill-rule:nonzero;"/>
        </g>
        <g transform="matrix(12,0,0,12,80.1941,7.79038)">
            <path d="M0.196,0.012C0.274,0.012 0.334,-0.031 0.358,-0.068L0.366,-0.068L0.372,-0L0.553,-0L0.553,-0.102L0.477,-0.102L0.477,-0.3C0.477,-0.428 0.402,-0.505 0.255,-0.505C0.119,-0.505 0.032,-0.433 0.032,-0.314L0.15,-0.311C0.15,-0.369 0.188,-0.403 0.257,-0.403C0.327,-0.403 0.353,-0.371 0.354,-0.335C0.355,-0.308 0.333,-0.293 0.293,-0.286L0.135,-0.259C0.07,-0.248 0.03,-0.214 0.03,-0.138L0.03,-0.136C0.03,-0.055 0.092,0.012 0.196,0.012ZM0.237,-0.087C0.188,-0.087 0.151,-0.109 0.151,-0.141L0.151,-0.143C0.151,-0.177 0.17,-0.193 0.214,-0.201L0.307,-0.218C0.327,-0.222 0.343,-0.229 0.352,-0.237L0.358,-0.237L0.358,-0.186C0.358,-0.119 0.291,-0.087 0.237,-0.087Z" style="fill:rgb(29,13,91);fill-rule:nonzero;"/>
        </g>
        <g transform="matrix(12,0,0,12,86.9621,7.79038)">
            <path d="M0.175,-0L0.175,-0.262C0.175,-0.326 0.223,-0.387 0.287,-0.387C0.314,-0.387 0.34,-0.379 0.363,-0.369L0.372,-0.369L0.375,-0.488C0.352,-0.497 0.332,-0.502 0.305,-0.502C0.238,-0.502 0.198,-0.453 0.18,-0.414L0.171,-0.414L0.171,-0.493L0.056,-0.493L0.056,-0L0.175,-0Z" style="fill:rgb(29,13,91);fill-rule:nonzero;"/>
        </g>
        <g transform="matrix(12,0,0,12,91.6661,7.79038)">
            <path d="M0.529,-0.265C0.529,-0.423 0.409,-0.505 0.283,-0.505C0.14,-0.505 0.028,-0.4 0.028,-0.248L0.028,-0.246C0.028,-0.094 0.139,0.012 0.282,0.012C0.402,0.012 0.502,-0.056 0.525,-0.168L0.401,-0.172C0.386,-0.124 0.342,-0.091 0.281,-0.091C0.209,-0.091 0.156,-0.141 0.15,-0.218L0.529,-0.218L0.529,-0.265ZM0.282,-0.403C0.345,-0.403 0.398,-0.362 0.404,-0.294L0.151,-0.294C0.162,-0.357 0.211,-0.403 0.282,-0.403Z" style="fill:rgb(29,13,91);fill-rule:nonzero;"/>
        </g>
        <g transform="matrix(12,0,0,12,98.3381,7.79038)">
            <path d="M0.529,-0.265C0.529,-0.423 0.409,-0.505 0.283,-0.505C0.14,-0.505 0.028,-0.4 0.028,-0.248L0.028,-0.246C0.028,-0.094 0.139,0.012 0.282,0.012C0.402,0.012 0.502,-0.056 0.525,-0.168L0.401,-0.172C0.386,-0.124 0.342,-0.091 0.281,-0.091C0.209,-0.091 0.156,-0.141 0.15,-0.218L0.529,-0.218L0.529,-0.265ZM0.282,-0.403C0.345,-0.403 0.398,-0.362 0.404,-0.294L0.151,-0.294C0.162,-0.357 0.211,-0.403 0.282,-0.403Z" style="fill:rgb(29,13,91);fill-rule:nonzero;"/>
        </g>
        <g transform="matrix(12,0,0,12,105.01,7.79038)">
            <path d="M0.175,-0L0.175,-0.262C0.175,-0.326 0.223,-0.387 0.287,-0.387C0.314,-0.387 0.34,-0.379 0.363,-0.369L0.372,-0.369L0.375,-0.488C0.352,-0.497 0.332,-0.502 0.305,-0.502C0.238,-0.502 0.198,-0.453 0.18,-0.414L0.171,-0.414L0.171,-0.493L0.056,-0.493L0.056,-0L0.175,-0Z" style="fill:rgb(29,13,91);fill-rule:nonzero;"/>
        </g>
        <g transform="matrix(12,0,0,12,109.714,7.79038)">
            <path d="M0.263,0.012C0.409,0.012 0.485,-0.051 0.485,-0.142C0.485,-0.222 0.427,-0.266 0.311,-0.284L0.241,-0.295C0.179,-0.305 0.159,-0.318 0.159,-0.346C0.159,-0.379 0.194,-0.404 0.255,-0.404C0.323,-0.404 0.368,-0.368 0.368,-0.318L0.483,-0.321C0.483,-0.442 0.376,-0.505 0.255,-0.505C0.114,-0.505 0.041,-0.434 0.041,-0.348C0.041,-0.271 0.093,-0.231 0.219,-0.211L0.289,-0.2C0.346,-0.191 0.367,-0.175 0.367,-0.145C0.367,-0.112 0.329,-0.089 0.265,-0.089C0.192,-0.089 0.144,-0.127 0.144,-0.18L0.029,-0.178C0.029,-0.059 0.133,0.012 0.263,0.012L0.263,0.012Z" style="fill:rgb(29,13,91);fill-rule:nonzero;"/>
        </g>
        <g transform="matrix(12,0,0,12,115.882,7.79038)">
            <rect x="0.066" y="-0.143" width="0.128" height="0.143" style="fill:rgb(29,13,91);fill-rule:nonzero;"/>
        </g>
        <g transform="matrix(12,0,0,12,119.002,7.79038)">
            <path d="M0.284,0.012C0.404,0.012 0.507,-0.058 0.528,-0.194L0.405,-0.197C0.391,-0.131 0.342,-0.093 0.283,-0.093C0.206,-0.093 0.149,-0.157 0.149,-0.246L0.149,-0.248C0.149,-0.337 0.206,-0.4 0.283,-0.4C0.342,-0.4 0.391,-0.363 0.405,-0.297L0.528,-0.3C0.507,-0.436 0.404,-0.505 0.284,-0.505C0.141,-0.505 0.028,-0.4 0.028,-0.248L0.028,-0.246C0.028,-0.094 0.141,0.012 0.284,0.012Z" style="fill:rgb(29,13,91);fill-rule:nonzero;"/>
        </g>
        <g transform="matrix(12,0,0,12,125.674,7.79038)">
            <path d="M0.282,0.012C0.424,0.012 0.537,-0.094 0.537,-0.246L0.537,-0.248C0.537,-0.4 0.424,-0.505 0.282,-0.505C0.141,-0.505 0.028,-0.4 0.028,-0.248L0.028,-0.246C0.028,-0.094 0.141,0.012 0.282,0.012ZM0.282,-0.093C0.204,-0.093 0.149,-0.157 0.149,-0.246L0.149,-0.248C0.149,-0.338 0.204,-0.4 0.282,-0.4C0.36,-0.4 0.416,-0.338 0.416,-0.248L0.416,-0.246C0.416,-0.157 0.36,-0.093 0.282,-0.093Z" style="fill:rgb(29,13,91);fill-rule:nonzero;"/>
        </g>
    </g>
    <defs>
        <linearGradient id="_Linear1" x1="0" y1="0" x2="1" y2="0" gradientUnits="userSpaceOnUse" gradientTransform="matrix(17.9357,0,0,17.9357,0.0571989,15.5584)"><stop offset="0" style="stop-color:rgb(1,108,249);stop-opacity:1"/><stop offset="1" style="stop-color:rgb(153,198,255);stop-opacity:1"/></linearGradient>
        <linearGradient id="_Linear2" x1="0" y1="0" x2="1" y2="0" gradientUnits="userSpaceOnUse" gradientTransform="matrix(17.9358,0,0,17.9358,6.83772,15.5562)"><stop offset="0" style="stop-color:rgb(153,198,255);stop-opacity:1"/><stop offset="1" style="stop-color:rgb(1,108,249);stop-opacity:1"/></linearGradient>
    </defs>
</svg>
