<svg xmlns:xlink="http://www.w3.org/1999/xlink" xmlns="http://www.w3.org/2000/svg" version="1.0" width="576" height="576" viewBox="0 0 576.000000 576.000000" preserveAspectRatio="xMidYMid meet">
<metadata>
Created by potrace 1.14, written by Peter Selinger 2001-2017
</metadata>
<g transform="translate(0.000000,576.000000) scale(0.100000,-0.100000)" fill="#000000" stroke="none">
<path d="M4978 5549 c-53 -8 -154 -48 -186 -73 -71 -58 -143 -162 -158 -227 -2 -10 -6 -29 -9 -41 -30 -133 26 -299 132 -396 40 -36 113 -80 148 -89 86 -22 179 -24 243 -4 17 5 32 7 32 3 0 -4 4 -2 8 3 4 6 25 19 47 30 47 23 133 107 155 150 8 17 17 32 20 35 3 3 11 21 17 40 44 127 28 269 -42 379 -28 46 -91 111 -106 111 -5 0 -9 4 -9 9 0 13 -110 59 -160 66 -25 3 -52 7 -60 9 -8 2 -41 0 -72 -5z"/>
<path d="M1979 4345 c-2 -1 -26 -6 -54 -9 -125 -16 -165 -24 -285 -57 -19 -5 -42 -11 -50 -14 -19 -5 -87 -29 -125 -46 -16 -7 -33 -13 -36 -13 -15 -2 -154 -72 -157 -78 -2 -5 -8 -8 -14 -8 -17 0 -128 -70 -228 -144 -264 -195 -474 -463 -618 -786 -25 -55 -91 -256 -97 -290 -2 -14 -6 -35 -9 -47 -9 -35 -13 -54 -21 -103 -4 -25 -10 -58 -13 -75 -3 -16 -7 -443 -9 -949 -4 -1013 -5 -986 58 -1090 97 -156 261 -230 449 -202 64 9 174 72 225 128 41 45 94 136 101 173 1 6 5 24 8 40 3 17 6 415 6 886 0 925 1 938 55 1109 67 211 217 416 400 546 87 62 268 141 362 159 98 18 229 24 363 15 101 -7 360 -106 418 -161 12 -10 25 -19 29 -19 21 0 170 -144 227 -220 100 -131 178 -303 201 -445 3 -16 8 -41 10 -55 3 -14 8 -66 10 -115 6 -117 10 -142 31 -195 49 -126 159 -222 297 -259 65 -17 186 -8 253 19 32 13 65 30 72 37 7 7 17 13 21 13 4 0 28 21 53 46 47 47 105 148 115 200 7 40 6 274 -2 315 -3 19 -6 41 -7 49 -1 22 -18 115 -39 205 -36 158 -153 437 -230 547 -11 14 -19 29 -19 32 0 3 -6 14 -14 23 -8 10 -42 55 -75 100 -95 129 -274 303 -405 393 -28 19 -53 37 -56 40 -12 14 -172 102 -244 135 -72 34 -221 91 -256 99 -8 2 -33 9 -55 15 -22 6 -58 13 -80 17 -22 3 -43 8 -46 10 -4 2 -22 6 -40 9 -19 3 -52 8 -74 11 -43 6 -401 15 -406 9z"/>
<path d="M4920 4335 c-115 -31 -218 -115 -269 -220 -18 -36 -35 -75 -38 -87 -3 -13 -7 -410 -9 -883 -1 -473 -3 -860 -4 -860 0 0 -3 -25 -5 -55 -2 -30 -9 -78 -15 -105 -7 -28 -13 -57 -15 -65 -2 -8 -15 -48 -30 -89 -138 -379 -484 -652 -871 -687 -38 -3 -71 -8 -73 -10 -2 -2 -12 1 -22 6 -12 7 -20 7 -24 0 -4 -6 -10 -8 -14 -6 -4 3 -32 7 -62 11 -82 8 -102 11 -129 19 -14 4 -43 12 -65 18 -85 23 -222 90 -303 150 -52 37 -184 165 -222 214 -29 37 -96 149 -119 198 -31 68 -77 212 -85 266 -6 43 -9 72 -21 232 -9 131 -84 257 -194 328 -28 17 -56 33 -63 34 -7 1 -30 8 -51 15 -49 17 -127 20 -186 9 -25 -5 -51 -10 -56 -11 -6 -2 -35 -15 -65 -29 -117 -57 -206 -178 -226 -308 -14 -87 4 -345 33 -465 3 -11 8 -36 13 -55 5 -19 11 -45 13 -56 37 -155 150 -407 249 -554 35 -51 68 -102 75 -113 6 -11 15 -22 20 -26 4 -3 24 -26 44 -51 70 -86 204 -216 292 -280 26 -19 57 -43 70 -53 30 -25 173 -110 255 -151 62 -31 248 -104 282 -111 8 -2 15 -4 15 -5 0 -1 8 -3 17 -5 9 -2 46 -10 82 -19 36 -10 82 -19 103 -22 20 -2 48 -6 62 -9 99 -16 341 -22 421 -10 19 2 59 7 89 10 130 13 361 78 493 139 31 14 59 26 63 26 3 0 22 11 43 24 20 12 39 23 42 23 15 -2 200 124 283 191 343 278 585 681 673 1117 2 11 6 31 9 45 6 32 15 92 21 155 9 85 10 1815 1 1815 -4 0 -5 5 -2 10 7 12 -22 107 -39 130 -7 8 -18 28 -26 44 -26 51 -156 152 -212 164 -5 1 -9 2 -10 3 -55 16 -185 19 -238 4z"/>
</g>
</svg>